<svg xmlns="http://www.w3.org/2000/svg" role="img" viewBox="0 0 640 380" width="640" height="380" font-family="Helvetica, Arial, sans-serif" font-size="12"><title>Cost versus gap to the best model</title><rect x="0" y="0" width="640" height="380" fill="#ffffff"/><text x="70" y="22" font-size="14" font-weight="bold" fill="#222">Cost versus gap to the best model</text><line x1="70" y1="330" x2="610" y2="330" stroke="#888"/><line x1="70" y1="36" x2="70" y2="330" stroke="#888"/><text x="340" y="368" text-anchor="middle" fill="#444">median wall-clock per fit (s, log scale)</text><text x="16" y="183" text-anchor="middle" fill="#444" transform="rotate(-90 16 183)">median relative gap to best test score</text><line x1="70" y1="309.7" x2="610" y2="309.7" stroke="#ccc" stroke-dasharray="4 3"/><line x1="105.2" y1="330" x2="105.2" y2="334" stroke="#888"/><text x="105.2" y="346" text-anchor="middle" fill="#555">0.05 s</text><line x1="141.5" y1="330" x2="141.5" y2="334" stroke="#888"/><text x="141.5" y="346" text-anchor="middle" fill="#555">0.1 s</text><line x1="177.9" y1="330" x2="177.9" y2="334" stroke="#888"/><text x="177.9" y="346" text-anchor="middle" fill="#555">0.2 s</text><line x1="225.9" y1="330" x2="225.9" y2="334" stroke="#888"/><text x="225.9" y="346" text-anchor="middle" fill="#555">0.5 s</text><line x1="262.2" y1="330" x2="262.2" y2="334" stroke="#888"/><text x="262.2" y="346" text-anchor="middle" fill="#555">1 s</text><line x1="298.6" y1="330" x2="298.6" y2="334" stroke="#888"/><text x="298.6" y="346" text-anchor="middle" fill="#555">2 s</text><line x1="346.6" y1="330" x2="346.6" y2="334" stroke="#888"/><text x="346.6" y="346" text-anchor="middle" fill="#555">5 s</text><line x1="383.0" y1="330" x2="383.0" y2="334" stroke="#888"/><text x="383.0" y="346" text-anchor="middle" fill="#555">10 s</text><line x1="419.3" y1="330" x2="419.3" y2="334" stroke="#888"/><text x="419.3" y="346" text-anchor="middle" fill="#555">20 s</text><line x1="467.4" y1="330" x2="467.4" y2="334" stroke="#888"/><text x="467.4" y="346" text-anchor="middle" fill="#555">50 s</text><line x1="503.7" y1="330" x2="503.7" y2="334" stroke="#888"/><text x="503.7" y="346" text-anchor="middle" fill="#555">100 s</text><line x1="540.0" y1="330" x2="540.0" y2="334" stroke="#888"/><text x="540.0" y="346" text-anchor="middle" fill="#555">200 s</text><line x1="588.1" y1="330" x2="588.1" y2="334" stroke="#888"/><text x="588.1" y="346" text-anchor="middle" fill="#555">500 s</text><text x="64" y="313.7" text-anchor="end" fill="#555">0%</text><text x="64" y="187.0" text-anchor="end" fill="#555">10%</text><text x="64" y="60.3" text-anchor="end" fill="#555">21%</text><circle cx="345.0" cy="83.3" r="6" fill="#0072B2"><title>conventional_ml: 4.8 s, gap 18.7%</title></circle><text x="354.0" y="87.3" fill="#222">conventional_ml</text><circle cx="463.2" cy="56.3" r="6" fill="#E69F00"><title>deep_tabular: 46.2 s, gap 20.9%</title></circle><text x="472.2" y="60.3" fill="#222">deep_tabular</text><circle cx="530.4" cy="207.4" r="6" fill="#009E73"><title>ensemble: 166.3 s, gap 8.4%</title></circle><text x="539.4" y="211.4" fill="#222">ensemble</text><circle cx="107.2" cy="227.4" r="6" fill="#CC79A7"><title>fusion: 0.1 s, gap 6.8%</title></circle><text x="116.2" y="231.4" fill="#222">fusion</text><circle cx="373.7" cy="169.6" r="6" fill="#56B4E9"><title>gradient_boosting: 8.4 s, gap 11.6%</title></circle><text x="382.7" y="173.6" fill="#222">gradient_boosting</text><circle cx="557.1" cy="180.6" r="6" fill="#D55E00"><title>graph_nn: 276.9 s, gap 10.6%</title></circle><text x="566.1" y="184.6" fill="#222">graph_nn</text><circle cx="520.1" cy="152.0" r="6" fill="#F0E442"><title>maplight_gnn: 136.8 s, gap 13.0%</title></circle><text x="529.1" y="156.0" fill="#222">maplight_gnn</text><circle cx="572.8" cy="240.9" r="6" fill="#000000"><title>pretrained_3d: 373.3 s, gap 5.7%</title></circle><text x="563.8" y="244.9" text-anchor="end" fill="#222">pretrained_3d</text></svg>
