<svg xmlns="http://www.w3.org/2000/svg" role="img" viewBox="0 0 640 380" width="640" height="380" font-family="Helvetica, Arial, sans-serif" font-size="12"><title>Cost versus gap to the best model</title><rect x="0" y="0" width="640" height="380" fill="#ffffff"/><text x="70" y="22" font-size="14" font-weight="bold" fill="#222">Cost versus gap to the best model</text><line x1="70" y1="330" x2="610" y2="330" stroke="#888"/><line x1="70" y1="36" x2="70" y2="330" stroke="#888"/><text x="340" y="368" text-anchor="middle" fill="#444">median wall-clock per fit (s, log scale)</text><text x="16" y="183" text-anchor="middle" fill="#444" transform="rotate(-90 16 183)">median relative gap to best test score</text><line x1="70" y1="309.7" x2="610" y2="309.7" stroke="#ccc" stroke-dasharray="4 3"/><line x1="106.2" y1="330" x2="106.2" y2="334" stroke="#888"/><text x="106.2" y="346" text-anchor="middle" fill="#555">0.05 s</text><line x1="142.9" y1="330" x2="142.9" y2="334" stroke="#888"/><text x="142.9" y="346" text-anchor="middle" fill="#555">0.1 s</text><line x1="179.5" y1="330" x2="179.5" y2="334" stroke="#888"/><text x="179.5" y="346" text-anchor="middle" fill="#555">0.2 s</text><line x1="228.0" y1="330" x2="228.0" y2="334" stroke="#888"/><text x="228.0" y="346" text-anchor="middle" fill="#555">0.5 s</text><line x1="264.6" y1="330" x2="264.6" y2="334" stroke="#888"/><text x="264.6" y="346" text-anchor="middle" fill="#555">1 s</text><line x1="301.3" y1="330" x2="301.3" y2="334" stroke="#888"/><text x="301.3" y="346" text-anchor="middle" fill="#555">2 s</text><line x1="349.8" y1="330" x2="349.8" y2="334" stroke="#888"/><text x="349.8" y="346" text-anchor="middle" fill="#555">5 s</text><line x1="386.4" y1="330" x2="386.4" y2="334" stroke="#888"/><text x="386.4" y="346" text-anchor="middle" fill="#555">10 s</text><line x1="423.1" y1="330" x2="423.1" y2="334" stroke="#888"/><text x="423.1" y="346" text-anchor="middle" fill="#555">20 s</text><line x1="471.6" y1="330" x2="471.6" y2="334" stroke="#888"/><text x="471.6" y="346" text-anchor="middle" fill="#555">50 s</text><line x1="508.2" y1="330" x2="508.2" y2="334" stroke="#888"/><text x="508.2" y="346" text-anchor="middle" fill="#555">100 s</text><line x1="544.9" y1="330" x2="544.9" y2="334" stroke="#888"/><text x="544.9" y="346" text-anchor="middle" fill="#555">200 s</text><line x1="593.3" y1="330" x2="593.3" y2="334" stroke="#888"/><text x="593.3" y="346" text-anchor="middle" fill="#555">500 s</text><text x="64" y="313.7" text-anchor="end" fill="#555">0%</text><text x="64" y="187.0" text-anchor="end" fill="#555">11%</text><text x="64" y="60.3" text-anchor="end" fill="#555">23%</text><circle cx="340.4" cy="70.0" r="6" fill="#0072B2"><title>conventional_ml: 4.2 s, gap 21.4%</title></circle><text x="349.4" y="74.0" fill="#222">conventional_ml</text><circle cx="455.8" cy="56.3" r="6" fill="#E69F00"><title>deep_tabular: 37.1 s, gap 22.6%</title></circle><text x="464.8" y="60.3" fill="#222">deep_tabular</text><circle cx="107.2" cy="230.7" r="6" fill="#009E73"><title>fusion: 0.1 s, gap 7.0%</title></circle><text x="116.2" y="234.7" fill="#222">fusion</text><circle cx="371.4" cy="167.8" r="6" fill="#CC79A7"><title>gradient_boosting: 7.5 s, gap 12.6%</title></circle><text x="380.4" y="171.8" fill="#222">gradient_boosting</text><circle cx="560.9" cy="176.7" r="6" fill="#56B4E9"><title>graph_nn: 270.6 s, gap 11.9%</title></circle><text x="569.9" y="180.7" fill="#222">graph_nn</text><circle cx="522.3" cy="155.2" r="6" fill="#D55E00"><title>maplight_gnn: 130.4 s, gap 13.8%</title></circle><text x="531.3" y="159.2" fill="#222">maplight_gnn</text><circle cx="572.8" cy="214.9" r="6" fill="#F0E442"><title>pretrained_3d: 338.8 s, gap 8.4%</title></circle><text x="563.8" y="218.9" text-anchor="end" fill="#222">pretrained_3d</text></svg>
