<svg xmlns="http://www.w3.org/2000/svg" role="img" viewBox="0 0 640 304" width="640" height="304" font-family="Helvetica, Arial, sans-serif" font-size="12"><title>Datasets won by model family (test-selected)</title><rect x="0" y="0" width="640" height="304" fill="#ffffff"/><text x="190" y="20" font-size="14" font-weight="bold" fill="#222">Datasets won by model family (test-selected)</text><text x="182" y="49.4" text-anchor="end" fill="#222">graph_nn</text><rect x="190" y="34" width="380.0" height="22" fill="#0072B2"><title>graph_nn: 10</title></rect><text x="576.0" y="49.4" fill="#222">10</text><text x="182" y="79.4" text-anchor="end" fill="#222">ensemble</text><rect x="190" y="64" width="304.0" height="22" fill="#E69F00"><title>ensemble: 8</title></rect><text x="500.0" y="79.4" fill="#222">8</text><text x="182" y="109.4" text-anchor="end" fill="#222">pretrained_3d</text><rect x="190" y="94" width="304.0" height="22" fill="#009E73"><title>pretrained_3d: 8</title></rect><text x="500.0" y="109.4" fill="#222">8</text><text x="182" y="139.4" text-anchor="end" fill="#222">conventional_ml</text><rect x="190" y="124" width="190.0" height="22" fill="#CC79A7"><title>conventional_ml: 5</title></rect><text x="386.0" y="139.4" fill="#222">5</text><text x="182" y="169.4" text-anchor="end" fill="#222">deep_tabular</text><rect x="190" y="154" width="190.0" height="22" fill="#56B4E9"><title>deep_tabular: 5</title></rect><text x="386.0" y="169.4" fill="#222">5</text><text x="182" y="199.4" text-anchor="end" fill="#222">gradient_boosting</text><rect x="190" y="184" width="114.0" height="22" fill="#D55E00"><title>gradient_boosting: 3</title></rect><text x="310.0" y="199.4" fill="#222">3</text><text x="182" y="229.4" text-anchor="end" fill="#222">maplight_gnn</text><rect x="190" y="214" width="114.0" height="22" fill="#F0E442"><title>maplight_gnn: 3</title></rect><text x="310.0" y="229.4" fill="#222">3</text><text x="182" y="259.4" text-anchor="end" fill="#222">fusion</text><rect x="190" y="244" width="76.0" height="22" fill="#000000"><title>fusion: 2</title></rect><text x="272.0" y="259.4" fill="#222">2</text><text x="190" y="296" fill="#555">number of datasets on which the family produced the best model</text></svg>
