<svg xmlns="http://www.w3.org/2000/svg" role="img" viewBox="0 0 640 274" width="640" height="274" font-family="Helvetica, Arial, sans-serif" font-size="12"><title>Datasets won by model family (test-selected)</title><rect x="0" y="0" width="640" height="274" fill="#ffffff"/><text x="190" y="20" font-size="14" font-weight="bold" fill="#222">Datasets won by model family (test-selected)</text><text x="182" y="49.4" text-anchor="end" fill="#222">graph_nn</text><rect x="190" y="34" width="380.0" height="22" fill="#0072B2"><title>graph_nn: 9</title></rect><text x="576.0" y="49.4" fill="#222">9</text><text x="182" y="79.4" text-anchor="end" fill="#222">pretrained_3d</text><rect x="190" y="64" width="337.8" height="22" fill="#E69F00"><title>pretrained_3d: 8</title></rect><text x="533.8" y="79.4" fill="#222">8</text><text x="182" y="109.4" text-anchor="end" fill="#222">deep_tabular</text><rect x="190" y="94" width="253.3" height="22" fill="#009E73"><title>deep_tabular: 6</title></rect><text x="449.3" y="109.4" fill="#222">6</text><text x="182" y="139.4" text-anchor="end" fill="#222">conventional_ml</text><rect x="190" y="124" width="211.1" height="22" fill="#CC79A7"><title>conventional_ml: 5</title></rect><text x="407.1" y="139.4" fill="#222">5</text><text x="182" y="169.4" text-anchor="end" fill="#222">fusion</text><rect x="190" y="154" width="126.7" height="22" fill="#56B4E9"><title>fusion: 3</title></rect><text x="322.7" y="169.4" fill="#222">3</text><text x="182" y="199.4" text-anchor="end" fill="#222">gradient_boosting</text><rect x="190" y="184" width="126.7" height="22" fill="#D55E00"><title>gradient_boosting: 3</title></rect><text x="322.7" y="199.4" fill="#222">3</text><text x="182" y="229.4" text-anchor="end" fill="#222">maplight_gnn</text><rect x="190" y="214" width="126.7" height="22" fill="#F0E442"><title>maplight_gnn: 3</title></rect><text x="322.7" y="229.4" fill="#222">3</text><text x="190" y="266" fill="#555">number of datasets on which the family produced the best model</text></svg>
